<?xml version="1.0" standalone="no"?>
<!DOCTYPE svg PUBLIC "-//W3C//DTD SVG 20010904//EN"
 "http://www.w3.org/TR/2001/REC-SVG-20010904/DTD/svg10.dtd">
<svg version="1.0" xmlns="http://www.w3.org/2000/svg"
 width="1280.000000pt" height="642.000000pt" viewBox="0 0 1280.000000 642.000000"
 preserveAspectRatio="xMidYMid meet">
<g transform="translate(0.000000,642.000000) scale(0.100000,-0.100000)"
fill="#000000" stroke="none">
<path d="M5575 6404 c-248 -20 -379 -33 -525 -54 -1122 -161 -2170 -637 -3051
-1387 -268 -228 -637 -624 -861 -923 -321 -431 -631 -1006 -759 -1407 l-23
-73 34 -35 34 -35 -33 -127 c-65 -250 -91 -369 -98 -431 -6 -59 -4 -64 22 -92
16 -17 32 -30 37 -30 4 0 17 33 29 72 55 191 104 340 132 407 l30 74 61 -66
c34 -36 100 -108 148 -160 49 -52 88 -100 88 -107 0 -8 -38 -84 -85 -169 -83
-154 -155 -301 -155 -318 0 -17 61 -68 68 -57 4 5 45 70 91 144 109 175 182
280 195 280 5 0 22 -12 37 -26 l26 -25 30 38 c16 21 56 76 88 123 396 573 838
1040 1330 1405 1161 862 2531 1145 3803 785 489 -138 981 -386 1410 -712 268
-204 652 -563 652 -610 0 -7 -335 -327 -745 -712 -410 -384 -745 -701 -745
-705 0 -5 1532 -387 4910 -1222 509 -126 933 -233 942 -239 10 -5 38 -10 63
-10 l45 0 0 76 c0 41 -4 83 -9 92 -5 9 -25 96 -44 192 -34 165 -123 595 -427
2073 -72 347 -194 936 -270 1307 -390 1894 -451 2184 -455 2188 -3 3 -17 -5
-32 -19 -39 -35 -1330 -1244 -1385 -1297 l-47 -45 -153 145 c-506 479 -964
806 -1524 1087 -657 329 -1346 525 -2058 586 -100 8 -228 20 -286 25 -134 13
-332 11 -535 -6z"/>
</g>
</svg>
